<svg width="16" height="16" viewBox="0 0 16 16" fill="none" xmlns="http://www.w3.org/2000/svg">
<path d="M14.6286 4.94922L13.3708 6.20703C13.2614 6.31641 13.0427 6.31641 12.9059 6.20703L9.87079 3.17188C9.76141 3.03516 9.76141 2.81641 9.87079 2.70703L11.1286 1.44922C11.6481 0.929688 12.4958 0.929688 12.988 1.44922L14.6286 3.08984C15.1481 3.58203 15.1481 4.42969 14.6286 4.94922ZM8.80438 3.77344C8.91376 3.66406 9.13251 3.66406 9.26923 3.77344L12.3044 6.80859C12.4411 6.94531 12.4411 7.16406 12.3044 7.27344L5.11298 14.4648L1.80438 15.0391C1.33954 15.1211 0.956726 14.7383 1.03876 14.2734L1.61298 10.9648L8.80438 3.77344ZM4.42938 10.3359C4.5661 10.5 4.81219 10.5 4.94891 10.3359L9.15985 6.125C9.32391 5.98828 9.32391 5.74219 9.15985 5.60547C9.02313 5.44141 8.77704 5.44141 8.64032 5.60547L4.42938 9.81641C4.26532 9.95312 4.26532 10.1992 4.42938 10.3359ZM3.44501 12.6328V11.3203H2.43329L2.13251 13.0977L2.98016 13.9453L4.75751 13.6445V12.6328H3.44501Z" fill="#344767"/>
</svg>
