<svg width="30" height="26" viewBox="0 0 30 26" fill="none" xmlns="http://www.w3.org/2000/svg">
<rect width="29.84" height="25.69" transform="translate(0.0800018 0.148438)" fill="url(#paint0_linear_54_4248)"/>
<path d="M16.7425 13.2383L19.0863 15.6055C19.3909 15.8867 19.3909 16.3555 19.0863 16.6367L18.5706 17.1523C18.2894 17.457 17.8206 17.457 17.5394 17.1523L15.1956 14.8086L12.8284 17.1523C12.5472 17.457 12.0784 17.457 11.7972 17.1523L11.2816 16.6367C10.9769 16.3555 10.9769 15.8867 11.2816 15.6055L13.6253 13.2383L11.2816 10.8945C10.9769 10.6133 10.9769 10.1445 11.2816 9.86328L11.7972 9.34766C12.0784 9.04297 12.5472 9.04297 12.8284 9.34766L15.1956 11.6914L17.5394 9.34766C17.8206 9.04297 18.2894 9.04297 18.5706 9.34766L19.0863 9.86328C19.3909 10.1445 19.3909 10.6133 19.0863 10.8945L16.7425 13.2383Z" fill="white"/>
<defs>
<linearGradient id="paint0_linear_54_4248" x1="30.0003" y1="25.4989" x2="-0.160344" y2="0.191091" gradientUnits="userSpaceOnUse">
<stop stop-color="#F5365C"/>
<stop offset="1" stop-color="#F56036"/>
</linearGradient>
</defs>
</svg>
