<svg width="14" height="15" viewBox="0 0 14 15" fill="none" xmlns="http://www.w3.org/2000/svg">
<path d="M11.7853 6.16406C12.4963 6.16406 13.0978 6.76562 13.0978 7.47656V12.7266C13.0978 13.4648 12.4963 14.0391 11.7853 14.0391H2.16034C1.42206 14.0391 0.847839 13.4648 0.847839 12.7266V7.47656C0.847839 6.76562 1.42206 6.16406 2.16034 6.16406H2.81659V4.19531C2.81659 1.92578 4.67596 0.0390625 6.97284 0.0390625C9.24237 0.0390625 11.1291 1.92578 11.1291 4.19531V6.16406H11.7853ZM8.94159 6.16406V4.19531C8.94159 3.12891 8.03925 2.22656 6.97284 2.22656C5.87909 2.22656 5.00409 3.12891 5.00409 4.19531V6.16406H8.94159Z" fill="#344767"/>
</svg>
