<svg width="10" height="11" viewBox="0 0 10 11" fill="none" xmlns="http://www.w3.org/2000/svg">
<path d="M9.17412 4.31836C9.546 4.31836 9.87412 4.64648 9.87412 5.01836V5.71836C9.87412 6.11211 9.546 6.41836 9.17412 6.41836H6.02412V9.56836C6.02412 9.96211 5.696 10.2684 5.32412 10.2684H4.62412C4.23037 10.2684 3.92412 9.96211 3.92412 9.56836V6.41836H0.774121C0.380371 6.41836 0.074121 6.11211 0.074121 5.71836V5.01836C0.074121 4.64648 0.380371 4.31836 0.774121 4.31836H3.92412V1.16836C3.92412 0.796485 4.23037 0.46836 4.62412 0.46836H5.32412C5.696 0.46836 6.02412 0.796485 6.02412 1.16836V4.31836H9.17412Z" fill="white"/>
</svg>
