<svg width="14" height="14" viewBox="0 0 14 14" fill="none" xmlns="http://www.w3.org/2000/svg">
<path d="M10.0984 12.0498H4.30151C4.11922 12.0498 3.97339 12.1045 3.86401 12.2139C3.75464 12.3232 3.69995 12.46 3.69995 12.624C3.69995 12.7881 3.75464 12.9248 3.86401 13.0342C3.97339 13.1436 4.11922 13.1982 4.30151 13.1982H10.0984C10.2807 13.1982 10.4265 13.1436 10.5359 13.0342C10.6453 12.9248 10.7 12.7881 10.7 12.624C10.7 12.46 10.6453 12.3232 10.5359 12.2139C10.4265 12.1045 10.2807 12.0498 10.0984 12.0498ZM13.5984 0.401367H0.801514C0.619222 0.401367 0.473389 0.456055 0.364014 0.56543C0.254639 0.674805 0.199951 0.802409 0.199951 0.948242V10.2998C0.199951 10.4456 0.254639 10.5824 0.364014 10.71C0.473389 10.8376 0.619222 10.9014 0.801514 10.9014H13.5984C13.7807 10.9014 13.9265 10.8376 14.0359 10.71C14.1453 10.5824 14.2 10.4456 14.2 10.2998V0.948242C14.2 0.802409 14.1453 0.674805 14.0359 0.56543C13.9265 0.456055 13.7807 0.401367 13.5984 0.401367ZM13.0515 9.69824H1.34839V1.5498H13.0515V9.69824Z" fill="#2B9D51"/>
</svg>
