<svg width="15" height="14" viewBox="0 0 15 14" fill="none" xmlns="http://www.w3.org/2000/svg">
<path d="M10.0986 12.4482H4.30176C4.11947 12.4482 3.97363 12.5029 3.86426 12.6123C3.75488 12.7217 3.7002 12.8584 3.7002 13.0225C3.7002 13.1865 3.75488 13.3232 3.86426 13.4326C3.97363 13.542 4.11947 13.5967 4.30176 13.5967H10.0986C10.2809 13.5967 10.4268 13.542 10.5361 13.4326C10.6455 13.3232 10.7002 13.1865 10.7002 13.0225C10.7002 12.8584 10.6455 12.7217 10.5361 12.6123C10.4268 12.5029 10.2809 12.4482 10.0986 12.4482ZM13.5986 0.799805H0.801758C0.619466 0.799805 0.473633 0.854492 0.364258 0.963867C0.254883 1.07324 0.200195 1.20085 0.200195 1.34668V10.6982C0.200195 10.8441 0.254883 10.9808 0.364258 11.1084C0.473633 11.236 0.619466 11.2998 0.801758 11.2998H13.5986C13.7809 11.2998 13.9268 11.236 14.0361 11.1084C14.1455 10.9808 14.2002 10.8441 14.2002 10.6982V1.34668C14.2002 1.20085 14.1455 1.07324 14.0361 0.963867C13.9268 0.854492 13.7809 0.799805 13.5986 0.799805ZM13.0518 10.0967H1.34863V1.94824H13.0518V10.0967Z" fill="#5E72E4"/>
</svg>
