<svg width="14" height="15" viewBox="0 0 14 15" fill="none" xmlns="http://www.w3.org/2000/svg">
<g clip-path="url(#clip0_54_6160)">
<path d="M1.40308 2.54004V4.29004H0.199951V5.43848H1.40308V7.18848H0.199951V8.3916H1.40308V10.0869L0.199951 10.1416V11.29H1.40308V14.79H14.2V0.790039H1.40308V2.54004ZM13.0515 7.79004V13.6416L2.55151 13.5869L2.49683 11.29H3.69995V10.1416L2.55151 10.0869L2.49683 8.3916H3.69995V7.18848H2.49683L2.55151 5.43848H3.69995V4.29004H2.49683V3.1416C2.49683 2.37598 2.50594 1.98405 2.52417 1.96582C2.5424 1.94759 4.30151 1.93848 7.80151 1.93848H13.0515V7.79004ZM5.44995 7.79004V10.1416H11.2468V5.43848H5.44995V7.79004ZM10.1531 7.79004V8.93848H6.59839V6.6416H10.1531V7.79004Z" fill="#5E72E4"/>
</g>
<defs>
<clipPath id="clip0_54_6160">
<rect width="13.6" height="14" fill="white" transform="matrix(1 0 0 -1 0.199951 14.79)"/>
</clipPath>
</defs>
</svg>
