<svg width="14" height="14" viewBox="0 0 14 14" fill="none" xmlns="http://www.w3.org/2000/svg">
<path d="M13.7812 7.13867C13.7812 10.8848 10.7188 13.9199 7 13.9199C5.38672 13.9473 3.88281 13.373 2.73438 12.4434C2.43359 12.1973 2.40625 11.7324 2.67969 11.459L2.98047 11.1582C3.22656 10.9121 3.60938 10.8848 3.85547 11.1035C4.73047 11.7871 5.79688 12.1699 7 12.1699C9.76172 12.1699 12.0312 9.92773 12.0312 7.13867C12.0312 4.37695 9.76172 2.10742 7 2.10742C5.66016 2.10742 4.42969 2.62695 3.52734 3.47461L4.92188 4.86914C5.19531 5.14258 5.00391 5.60742 4.62109 5.60742H0.65625C0.410156 5.60742 0.21875 5.41602 0.21875 5.16992V1.20508C0.21875 0.822266 0.683594 0.630859 0.957031 0.904297L2.29688 2.24414C3.52734 1.0957 5.16797 0.357422 7 0.357422C10.7188 0.357422 13.7539 3.39258 13.7812 7.13867ZM8.83203 9.29883C8.58594 9.57227 8.17578 9.62695 7.90234 9.4082L6.125 8.01367V4.29492C6.125 3.93945 6.39844 3.63867 6.78125 3.63867H7.21875C7.57422 3.63867 7.875 3.93945 7.875 4.29492V7.16602L8.96875 8.04102C9.26953 8.25977 9.32422 8.66992 9.07812 8.94336L8.83203 9.29883Z" fill="#45CF73"/>
</svg>
