<svg width="13" height="14" viewBox="0 0 13 14" fill="none" xmlns="http://www.w3.org/2000/svg">
<path d="M12.833 7.16406L6.43457 0.765625C6.3252 0.65625 6.17936 0.601562 5.99707 0.601562H0.74707C0.601237 0.601562 0.473633 0.65625 0.364258 0.765625C0.254883 0.875 0.200195 1.0026 0.200195 1.14844V6.39844C0.200195 6.58073 0.254883 6.72656 0.364258 6.83594L6.7627 13.2344C6.87207 13.3438 7.00879 13.3984 7.17285 13.3984C7.33691 13.3984 7.47363 13.3438 7.58301 13.2344L12.833 7.98438C12.9424 7.875 12.9971 7.73828 12.9971 7.57422C12.9971 7.41016 12.9424 7.27344 12.833 7.16406ZM3.7002 5.25C3.37207 5.25 3.08952 5.14062 2.85254 4.92188C2.61556 4.70312 2.49707 4.42969 2.49707 4.10156C2.49707 3.77344 2.61556 3.49089 2.85254 3.25391C3.08952 3.01693 3.37207 2.89844 3.7002 2.89844C4.02832 2.89844 4.30176 3.01693 4.52051 3.25391C4.73926 3.49089 4.84863 3.77344 4.84863 4.10156C4.84863 4.42969 4.73926 4.70312 4.52051 4.92188C4.30176 5.14062 4.02832 5.25 3.7002 5.25Z" fill="#F5365C"/>
</svg>
