<svg width="14" height="15" viewBox="0 0 14 15" fill="none" xmlns="http://www.w3.org/2000/svg">
<g clip-path="url(#clip0_284_9280)">
<path d="M12.833 7.76562L6.43457 1.36719C6.3252 1.25781 6.17936 1.20312 5.99707 1.20312H0.74707C0.601237 1.20312 0.473633 1.25781 0.364258 1.36719C0.254883 1.47656 0.200195 1.60417 0.200195 1.75V7C0.200195 7.18229 0.254883 7.32812 0.364258 7.4375L6.7627 13.8359C6.87207 13.9453 7.00879 14 7.17285 14C7.33691 14 7.47363 13.9453 7.58301 13.8359L12.833 8.58594C12.9424 8.47656 12.9971 8.33984 12.9971 8.17578C12.9971 8.01172 12.9424 7.875 12.833 7.76562ZM3.7002 5.85156C3.37207 5.85156 3.08952 5.74219 2.85254 5.52344C2.61556 5.30469 2.49707 5.03125 2.49707 4.70312C2.49707 4.375 2.61556 4.09245 2.85254 3.85547C3.08952 3.61849 3.37207 3.5 3.7002 3.5C4.02832 3.5 4.30176 3.61849 4.52051 3.85547C4.73926 4.09245 4.84863 4.375 4.84863 4.70312C4.84863 5.03125 4.73926 5.30469 4.52051 5.52344C4.30176 5.74219 4.02832 5.85156 3.7002 5.85156Z" fill="#11CDEF"/>
</g>
<defs>
<clipPath id="clip0_284_9280">
<rect width="13.6" height="14" fill="white" transform="matrix(1 0 0 -1 0.200195 14.6016)"/>
</clipPath>
</defs>
</svg>
