<svg width="14" height="22" viewBox="0 0 14 22" fill="none" xmlns="http://www.w3.org/2000/svg">
<g clip-path="url(#clip0_54_6254)">
<path d="M4.10156 9.45117H2.89844V4.20117C2.89844 4.01888 2.96224 3.87305 3.08984 3.76367C3.21745 3.6543 3.35417 3.59961 3.5 3.59961H10.5C10.6458 3.59961 10.7826 3.6543 10.9102 3.76367C11.0378 3.87305 11.1016 4.01888 11.1016 4.20117V7.70117H9.89844V4.74805H4.10156V9.45117ZM13.3984 8.24805H8.14844C8.0026 8.24805 7.875 8.31185 7.76562 8.43945C7.65625 8.56706 7.60156 8.70378 7.60156 8.84961V16.4512H6.39844V11.2012C6.39844 11.0189 6.34375 10.873 6.23438 10.7637C6.125 10.6543 5.9974 10.5996 5.85156 10.5996H0.601562C0.419271 10.5996 0.273438 10.6543 0.164062 10.7637C0.0546875 10.873 0 11.0189 0 11.2012V16.998C0 17.1803 0.0546875 17.3262 0.164062 17.4355C0.273438 17.5449 0.419271 17.5996 0.601562 17.5996H13.3984C13.5807 17.5996 13.7266 17.5449 13.8359 17.4355C13.9453 17.3262 14 17.1803 14 16.998V8.84961C14 8.70378 13.9453 8.56706 13.8359 8.43945C13.7266 8.31185 13.5807 8.24805 13.3984 8.24805ZM4.10156 15.8496H2.35156V14.7012H4.10156V15.8496ZM4.10156 13.498H2.35156V12.3496H4.10156V13.498ZM11.6484 15.8496H9.89844V14.7012H11.6484V15.8496ZM11.6484 13.498H9.89844V12.3496H11.6484V13.498ZM11.6484 11.2012H9.89844V9.99805H11.6484V11.2012Z" fill="#2DCE89"/>
</g>
<defs>
<clipPath id="clip0_54_6254">
<rect width="13.6" height="14" fill="white" transform="matrix(1 0 0 -1 0 17.5996)"/>
</clipPath>
</defs>
</svg>
