<svg width="14" height="15" viewBox="0 0 14 15" fill="none" xmlns="http://www.w3.org/2000/svg">
<g clip-path="url(#clip0_54_6118)">
<path d="M7 0.798828C5.72396 0.798828 4.54818 1.10872 3.47266 1.72852C2.39714 2.34831 1.54948 3.19596 0.929688 4.27148C0.309896 5.347 0 6.52279 0 7.79883C0 9.07487 0.309896 10.2507 0.929688 11.3262C1.54948 12.4017 2.39714 13.2493 3.47266 13.8691C4.54818 14.4889 5.72396 14.7988 7 14.7988C8.27604 14.7988 9.45182 14.4889 10.5273 13.8691C11.6029 13.2493 12.4505 12.4017 13.0703 11.3262C13.6901 10.2507 14 9.07487 14 7.79883C14 6.52279 13.6901 5.347 13.0703 4.27148C12.4505 3.19596 11.6029 2.34831 10.5273 1.72852C9.45182 1.10872 8.27604 0.798828 7 0.798828ZM4.64844 6.65039C4.64844 5.99414 4.88542 5.43815 5.35938 4.98242C5.83333 4.52669 6.38021 4.29883 7 4.29883C7.61979 4.29883 8.16667 4.52669 8.64062 4.98242C9.11458 5.43815 9.35156 5.99414 9.35156 6.65039V7.19727C9.35156 7.85352 9.11458 8.40951 8.64062 8.86523C8.16667 9.32096 7.61979 9.54883 7 9.54883C6.38021 9.54883 5.83333 9.32096 5.35938 8.86523C4.88542 8.40951 4.64844 7.85352 4.64844 7.19727V6.65039ZM7 13.6504C6.30729 13.6504 5.64193 13.5319 5.00391 13.2949C4.36589 13.0579 3.79167 12.7207 3.28125 12.2832C3.53646 11.8092 3.89193 11.4264 4.34766 11.1348C4.80339 10.8431 5.30469 10.6973 5.85156 10.6973H8.14844C8.69531 10.6973 9.19661 10.8431 9.65234 11.1348C10.1081 11.4264 10.4635 11.8092 10.7188 12.2832C10.2083 12.7207 9.63411 13.0579 8.99609 13.2949C8.35807 13.5319 7.69271 13.6504 7 13.6504Z" fill="#5E72E4"/>
</g>
<defs>
<clipPath id="clip0_54_6118">
<rect width="13.6" height="14" fill="white" transform="matrix(1 0 0 -1 0 14.5996)"/>
</clipPath>
</defs>
</svg>
