<svg width="14" height="15" viewBox="0 0 14 15" fill="none" xmlns="http://www.w3.org/2000/svg">
<path d="M0 2.75195C0 3.22591 0.164062 3.63607 0.492188 3.98242C0.820312 4.32878 1.23047 4.50195 1.72266 4.50195C2.21484 4.50195 2.63411 4.32878 2.98047 3.98242C3.32682 3.63607 3.5 3.2168 3.5 2.72461C3.5 2.23242 3.32682 1.82227 2.98047 1.49414C2.63411 1.16602 2.21484 1.00195 1.72266 1.00195C1.23047 1.00195 0.820312 1.16602 0.492188 1.49414C0.164062 1.82227 0 2.24154 0 2.75195ZM0 7.40039C0 7.87435 0.164062 8.28451 0.492188 8.63086C0.820312 8.97721 1.23047 9.15039 1.72266 9.15039C2.21484 9.15039 2.63411 8.97721 2.98047 8.63086C3.32682 8.28451 3.5 7.87435 3.5 7.40039C3.5 6.92643 3.32682 6.51628 2.98047 6.16992C2.63411 5.82357 2.21484 5.65039 1.72266 5.65039C1.23047 5.65039 0.820312 5.82357 0.492188 6.16992C0.164062 6.51628 0 6.92643 0 7.40039ZM0 12.0488C0 12.5592 0.164062 12.9785 0.492188 13.3066C0.820312 13.6348 1.23047 13.7988 1.72266 13.7988C2.21484 13.7988 2.63411 13.6348 2.98047 13.3066C3.32682 12.9785 3.5 12.5684 3.5 12.0762C3.5 11.584 3.32682 11.1647 2.98047 10.8184C2.63411 10.472 2.21484 10.2988 1.72266 10.2988C1.23047 10.2988 0.820312 10.472 0.492188 10.8184C0.164062 11.1647 0 11.5749 0 12.0488ZM4.64844 2.15039H12.7969V3.29883H4.64844V2.15039ZM4.64844 6.79883H12.7969V8.00195H4.64844V6.79883ZM4.64844 11.502H12.7969V12.6504H4.64844V11.502Z" fill="#F5365C"/>
</svg>
