<svg width="14" height="15" viewBox="0 0 14 15" fill="none" xmlns="http://www.w3.org/2000/svg">
<g clip-path="url(#clip0_56_19706)">
<path d="M4.10156 6.25098H2.89844V1.00098C2.89844 0.818685 2.96224 0.672852 3.08984 0.563477C3.21745 0.454102 3.35417 0.399414 3.5 0.399414H10.5C10.6458 0.399414 10.7826 0.454102 10.9102 0.563477C11.0378 0.672852 11.1016 0.818685 11.1016 1.00098V4.50098H9.89844V1.54785H4.10156V6.25098ZM13.3984 5.04785H8.14844C8.0026 5.04785 7.875 5.11165 7.76562 5.23926C7.65625 5.36686 7.60156 5.50358 7.60156 5.64941V13.251H6.39844V8.00098C6.39844 7.81869 6.34375 7.67285 6.23438 7.56348C6.125 7.4541 5.9974 7.39941 5.85156 7.39941H0.601562C0.419271 7.39941 0.273438 7.4541 0.164062 7.56348C0.0546875 7.67285 0 7.81869 0 8.00098V13.7979C0 13.9801 0.0546875 14.126 0.164062 14.2354C0.273438 14.3447 0.419271 14.3994 0.601562 14.3994H13.3984C13.5807 14.3994 13.7266 14.3447 13.8359 14.2354C13.9453 14.126 14 13.9801 14 13.7979V5.64941C14 5.50358 13.9453 5.36686 13.8359 5.23926C13.7266 5.11165 13.5807 5.04785 13.3984 5.04785ZM4.10156 12.6494H2.35156V11.501H4.10156V12.6494ZM4.10156 10.2979H2.35156V9.14941H4.10156V10.2979ZM11.6484 12.6494H9.89844V11.501H11.6484V12.6494ZM11.6484 10.2979H9.89844V9.14941H11.6484V10.2979ZM11.6484 8.00098H9.89844V6.79785H11.6484V8.00098Z" fill="#F47601"/>
</g>
<defs>
<clipPath id="clip0_56_19706">
<rect width="13.6" height="14" fill="white" transform="matrix(1 0 0 -1 0 14.2002)"/>
</clipPath>
</defs>
</svg>
