<svg width="14" height="15" viewBox="0 0 14 15" fill="none" xmlns="http://www.w3.org/2000/svg">
<g clip-path="url(#clip0_54_6273)">
<path d="M10.9375 1.62012C10.8281 1.47428 10.6823 1.40137 10.5 1.40137H3.5C3.31771 1.40137 3.17188 1.47428 3.0625 1.62012L0.109375 5.12012C0.0364583 5.19303 0 5.30241 0 5.44824C0 5.59408 0.0364583 5.72168 0.109375 5.83105L6.50781 14.5811C6.65365 14.7269 6.81771 14.7998 7 14.7998C7.18229 14.7998 7.34635 14.7269 7.49219 14.5811L13.8906 5.83105C13.9635 5.72168 14 5.59408 14 5.44824C14 5.30241 13.9635 5.19303 13.8906 5.12012L10.9375 1.62012ZM11.1016 6.0498H2.89844V4.90137H11.1016V6.0498Z" fill="#11CDEF"/>
</g>
<defs>
<clipPath id="clip0_54_6273">
<rect width="13.6" height="14" fill="white" transform="matrix(1 0 0 -1 0 14.7998)"/>
</clipPath>
</defs>
</svg>
