<svg width="14" height="14" viewBox="0 0 14 14" fill="none" xmlns="http://www.w3.org/2000/svg">
<path d="M6.20703 0.253906C5.44141 0.363281 4.71224 0.572917 4.01953 0.882812C3.32682 1.19271 2.70703 1.60286 2.16016 2.11328C1.21224 3.02474 0.574219 4.10026 0.246094 5.33984C-0.0820313 6.57943 -0.0820313 7.81901 0.246094 9.05859C0.574219 10.2982 1.22135 11.3737 2.1875 12.2852C3.15365 13.1966 4.3112 13.7982 5.66016 14.0898C5.98828 14.1263 6.42578 14.1445 6.97266 14.1445C7.51953 14.1445 7.95703 14.1263 8.28516 14.0898C9.77995 13.7617 11.0195 13.0872 12.0039 12.0664C12.7331 11.2643 13.2617 10.3529 13.5898 9.33203C13.918 8.3112 14.0091 7.27214 13.8633 6.21484C13.7174 5.15755 13.3346 4.17318 12.7148 3.26172C12.569 3.00651 12.2956 2.67839 11.8945 2.27734C11.4935 1.8763 11.1654 1.60286 10.9102 1.45703C10.1081 0.910156 9.23307 0.545573 8.28516 0.363281C8.02995 0.290364 7.68359 0.244792 7.24609 0.226562C6.80859 0.208333 6.46224 0.217448 6.20703 0.253906ZM4.34766 2.27734C3.98307 2.78776 3.67318 3.38932 3.41797 4.08203C3.16276 4.77474 2.9987 5.48568 2.92578 6.21484V6.59766H1.17578L1.23047 6.32422C1.30339 5.63151 1.54948 4.9388 1.96875 4.24609C2.38802 3.55339 2.88932 2.98828 3.47266 2.55078C3.58203 2.44141 3.79167 2.29557 4.10156 2.11328C4.41146 1.93099 4.58464 1.83984 4.62109 1.83984C4.65755 1.83984 4.56641 1.98568 4.34766 2.27734ZM6.42578 4.19141V6.59766H4.07422V6.21484C4.22005 5.04818 4.60286 3.97266 5.22266 2.98828C5.33203 2.84245 5.54167 2.61458 5.85156 2.30469C6.16146 1.99479 6.33464 1.83984 6.37109 1.83984C6.40755 1.83984 6.42578 2.6237 6.42578 4.19141ZM8.06641 2.27734C8.72266 2.93359 9.21484 3.75391 9.54297 4.73828C9.61589 4.99349 9.6888 5.30339 9.76172 5.66797C9.83464 6.03255 9.87109 6.28776 9.87109 6.43359V6.59766H7.51953V4.19141C7.51953 2.6237 7.53776 1.83984 7.57422 1.83984C7.61068 1.83984 7.77474 1.98568 8.06641 2.27734ZM9.76172 2.05859C10.0534 2.24089 10.2904 2.39583 10.4727 2.52344C10.6549 2.65104 10.8555 2.84245 11.0742 3.09766C11.5117 3.53516 11.8763 4.03646 12.168 4.60156C12.4596 5.16667 12.6419 5.74089 12.7148 6.32422L12.7695 6.59766H11.0195V6.21484C10.9466 5.48568 10.7826 4.77474 10.5273 4.08203C10.2721 3.38932 9.96224 2.78776 9.59766 2.27734C9.37891 1.98568 9.28776 1.83984 9.32422 1.83984C9.36068 1.83984 9.50651 1.91276 9.76172 2.05859ZM2.92578 8.18359C2.9987 8.91276 3.16276 9.6237 3.41797 10.3164C3.67318 11.0091 3.98307 11.6107 4.34766 12.1211C4.56641 12.4128 4.65755 12.5586 4.62109 12.5586C4.58464 12.5586 4.4388 12.4857 4.18359 12.3398C3.92839 12.194 3.70964 12.0482 3.52734 11.9023C3.34505 11.7565 3.11719 11.5469 2.84375 11.2734C2.57031 11 2.36068 10.7539 2.21484 10.5352C1.95964 10.207 1.74089 9.8151 1.55859 9.35938C1.3763 8.90365 1.26693 8.47526 1.23047 8.07422L1.17578 7.80078H2.92578V8.18359ZM6.42578 10.1523C6.42578 11.7565 6.40755 12.5586 6.37109 12.5586C6.33464 12.5586 6.17057 12.4036 5.87891 12.0938C5.58724 11.7839 5.36849 11.556 5.22266 11.4102C4.89453 10.8633 4.62109 10.2799 4.40234 9.66016C4.32943 9.40495 4.25651 9.09505 4.18359 8.73047C4.11068 8.36589 4.07422 8.11068 4.07422 7.96484V7.80078H6.42578V10.1523ZM9.87109 8.12891C9.72526 9.36849 9.34245 10.4622 8.72266 11.4102C8.57682 11.556 8.35807 11.7839 8.06641 12.0938C7.77474 12.4036 7.61068 12.5586 7.57422 12.5586C7.53776 12.5586 7.51953 11.7565 7.51953 10.1523V7.80078H9.87109V8.12891ZM12.7148 8.07422C12.6784 8.47526 12.5599 8.91276 12.3594 9.38672C12.1589 9.86068 11.931 10.2799 11.6758 10.6445C11.5299 10.8268 11.3294 11.0547 11.0742 11.3281C10.819 11.6016 10.6185 11.793 10.4727 11.9023C10.3268 12.0117 10.1081 12.1484 9.81641 12.3125C9.52474 12.4766 9.36068 12.5586 9.32422 12.5586C9.28776 12.5586 9.36068 12.431 9.54297 12.1758C9.94401 11.6289 10.2721 11.0091 10.5273 10.3164C10.7826 9.6237 10.9466 8.91276 11.0195 8.18359V7.80078H12.7695L12.7148 8.07422Z" fill="#FB6340"/>
</svg>
