<svg width="14" height="15" viewBox="0 0 14 15" fill="none" xmlns="http://www.w3.org/2000/svg">
<g clip-path="url(#clip0_54_6264)">
<path d="M10.9375 1.02051C10.8281 0.874675 10.6823 0.801758 10.5 0.801758H3.5C3.31771 0.801758 3.17188 0.874675 3.0625 1.02051L0.109375 4.52051C0.0364583 4.59342 0 4.7028 0 4.84863C0 4.99447 0.0364583 5.12207 0.109375 5.23145L6.50781 13.9814C6.65365 14.1273 6.81771 14.2002 7 14.2002C7.18229 14.2002 7.34635 14.1273 7.49219 13.9814L13.8906 5.23145C13.9635 5.12207 14 4.99447 14 4.84863C14 4.7028 13.9635 4.59342 13.8906 4.52051L10.9375 1.02051ZM11.1016 5.4502H2.89844V4.30176H11.1016V5.4502Z" fill="#F5365C"/>
</g>
<defs>
<clipPath id="clip0_54_6264">
<rect width="13.6" height="14" fill="white" transform="matrix(1 0 0 -1 0 14.2002)"/>
</clipPath>
</defs>
</svg>
