<svg width="14" height="15" viewBox="0 0 14 15" fill="none" xmlns="http://www.w3.org/2000/svg">
<path d="M6.90308 7.21875C4.96167 7.21875 3.40308 5.66016 3.40308 3.71875C3.40308 1.80469 4.96167 0.21875 6.90308 0.21875C8.81714 0.21875 10.4031 1.80469 10.4031 3.71875C10.4031 5.66016 8.81714 7.21875 6.90308 7.21875ZM9.33667 8.09375C11.3601 8.09375 13.0281 9.76172 13.0281 11.7852V12.9062C13.0281 13.6445 12.4265 14.2188 11.7156 14.2188H2.09058C1.35229 14.2188 0.778076 13.6445 0.778076 12.9062V11.7852C0.778076 9.76172 2.4187 8.09375 4.44214 8.09375H4.90698C5.50854 8.39453 6.19214 8.53125 6.90308 8.53125C7.61401 8.53125 8.27026 8.39453 8.87183 8.09375H9.33667Z" fill="white"/>
</svg>
